<svg width="635" height="510" viewBox="0 0 635 510" fill="none" xmlns="http://www.w3.org/2000/svg">
<path d="M0 500V390C0 384.477 4.47715 380 10 380H120C125.523 380 130 384.477 130 390V500C130 505.523 125.523 510 120 510H10C4.47715 510 0 505.523 0 500Z" fill="#F3C15E"/>
<path d="M91 434V324C91 318.477 95.4772 314 101 314H211C216.523 314 221 318.477 221 324V434C221 439.523 216.523 444 211 444H101C95.4772 444 91 439.523 91 434Z" fill="#F3C15E"/>
<path d="M117 500V390C117 384.477 121.477 380 127 380H237C242.523 380 247 384.477 247 390V500C247 505.523 242.523 510 237 510H127C121.477 510 117 505.523 117 500Z" fill="#98C0DA"/>
<path d="M177 355V245C177 239.477 181.477 235 187 235H297C302.523 235 307 239.477 307 245V355C307 360.523 302.523 365 297 365H187C181.477 365 177 360.523 177 355Z" fill="#F3C15E"/>
<path d="M208 434V324C208 318.477 212.477 314 218 314H328C333.523 314 338 318.477 338 324V434C338 439.523 333.523 444 328 444H218C212.477 444 208 439.523 208 434Z" fill="#98C0DA"/>
<path d="M235 500V390C235 384.477 239.477 380 245 380H355C360.523 380 365 384.477 365 390V500C365 505.523 360.523 510 355 510H245C239.477 510 235 505.523 235 500Z" fill="#BF3707"/>
<path d="M260 277V167C260 161.477 264.477 157 270 157H380C385.523 157 390 161.477 390 167V277C390 282.523 385.523 287 380 287H270C264.477 287 260 282.523 260 277Z" fill="#F3C15E"/>
<path d="M294 355V245C294 239.477 298.477 235 304 235H414C419.523 235 424 239.477 424 245V355C424 360.523 419.523 365 414 365H304C298.477 365 294 360.523 294 355Z" fill="#98C0DA"/>
<path d="M326 434V324C326 318.477 330.477 314 336 314H446C451.523 314 456 318.477 456 324V434C456 439.523 451.523 444 446 444H336C330.477 444 326 439.523 326 434Z" fill="#BF3707"/>
<path d="M355 500V390C355 384.477 359.477 380 365 380H475C480.523 380 485 384.477 485 390V500C485 505.523 480.523 510 475 510H365C359.477 510 355 505.523 355 500Z" fill="#F3DFC4"/>
<path d="M337 198V88C337 82.4772 341.477 78 347 78H457C462.523 78 467 82.4772 467 88V198C467 203.523 462.523 208 457 208H347C341.477 208 337 203.523 337 198Z" fill="#F3C15E"/>
<path d="M377 277V167C377 161.477 381.477 157 387 157H497C502.523 157 507 161.477 507 167V277C507 282.523 502.523 287 497 287H387C381.477 287 377 282.523 377 277Z" fill="#98C0DA"/>
<path d="M412 355V245C412 239.477 416.477 235 422 235H532C537.523 235 542 239.477 542 245V355C542 360.523 537.523 365 532 365H422C416.477 365 412 360.523 412 355Z" fill="#BF3707"/>
<path d="M446 438V328C446 322.477 450.477 318 456 318H566C571.523 318 576 322.477 576 328V438C576 443.523 571.523 448 566 448H456C450.477 448 446 443.523 446 438Z" fill="#F3DFC4"/>
<path d="M471 500V390C471 384.477 475.477 380 481 380H630C635.523 380 640 384.477 640 390V500C640 505.523 635.523 510 630 510H481C475.477 510 471 505.523 471 500Z" fill="#F3C15E"/>
<path d="M401 120V10C401 4.47715 405.477 0 411 0H635C640.523 0 645 4.47715 645 10V120C645 125.523 640.523 130 635 130H411C405.477 130 401 125.523 401 120Z" fill="#F3C15E"/>
<path d="M454 198V88C454 82.4772 458.477 78 464 78H630C635.523 78 640 82.4772 640 88V198C640 203.523 635.523 208 630 208H464C458.477 208 454 203.523 454 198Z" fill="#98C0DA"/>
<path d="M497 277V167C497 161.477 501.477 157 507 157H630C635.523 157 640 161.477 640 167V277C640 282.523 635.523 287 630 287H507C501.477 287 497 282.523 497 277Z" fill="#BF3707"/>
<path d="M542 367V257C542 251.477 546.477 247 552 247H662C667.523 247 672 251.477 672 257V367C672 372.523 667.523 377 662 377H552C546.477 377 542 372.523 542 367Z" fill="#F3DFC4"/>
<path d="M562 438V328C562 322.477 566.477 318 572 318H682C687.523 318 692 322.477 692 328V438C692 443.523 687.523 448 682 448H572C566.477 448 562 443.523 562 438Z" fill="#F3C15E"/>
</svg>
