<svg width="209" height="21" viewBox="0 0 209 21" fill="none" xmlns="http://www.w3.org/2000/svg">
<path d="M7.812 19.936L9.87202e-07 0.336034H4.116L9.912 15.4L15.652 0.336034H19.768L11.984 19.936H7.812ZM22.111 19.936V0.336034H25.947V19.936H22.111ZM30.2048 19.936V0.336034H34.0408V16.436H42.6648V19.936H30.2048ZM45.2438 19.936V0.336034H49.0798V16.436H57.7038V19.936H45.2438ZM58.3789 19.936L66.1069 0.336034H70.1949L77.9229 19.936H73.8629L72.1829 15.624H64.1189L62.4389 19.936H58.3789ZM65.3789 12.236H70.9229L68.1509 5.12403L65.3789 12.236ZM88.3321 20.272C86.3348 20.272 84.5615 19.8427 83.0121 18.984C81.4815 18.1067 80.2775 16.912 79.4001 15.4C78.5228 13.8694 78.0841 12.1147 78.0841 10.136C78.0841 8.15737 78.5228 6.41203 79.4001 4.90004C80.2775 3.36937 81.4815 2.1747 83.0121 1.31603C84.5615 0.438701 86.3348 3.48091e-05 88.3321 3.48091e-05C89.5268 3.48091e-05 90.6281 0.177368 91.6361 0.532035C92.6441 0.886701 93.5308 1.38137 94.2961 2.01603C95.0801 2.63203 95.7335 3.34137 96.2561 4.14403L93.1201 6.10403C92.8028 5.60003 92.3828 5.15203 91.8601 4.76003C91.3561 4.36803 90.7961 4.06003 90.1801 3.83603C89.5641 3.61203 88.9481 3.50003 88.3321 3.50003C87.1001 3.50003 86.0081 3.78937 85.0561 4.36803C84.1041 4.92803 83.3575 5.7027 82.8161 6.69203C82.2748 7.68137 82.0041 8.82937 82.0041 10.136C82.0041 11.424 82.2655 12.572 82.7881 13.58C83.3295 14.588 84.0855 15.3814 85.0561 15.96C86.0268 16.52 87.1468 16.8 88.4161 16.8C89.3681 16.8 90.2175 16.6227 90.9641 16.268C91.7108 15.8947 92.3081 15.3814 92.7561 14.728C93.2041 14.0747 93.4561 13.3094 93.5121 12.432H88.9761V9.43603H97.2081V11.816C97.1708 13.608 96.7695 15.1387 96.0041 16.408C95.2388 17.6587 94.1935 18.62 92.8681 19.292C91.5428 19.9454 90.0308 20.272 88.3321 20.272ZM100.041 19.936V0.336034H112.445V3.83603H103.877V8.28803H111.269V11.704H103.877V16.436H112.557V19.936H100.041ZM116.529 19.936V0.336034H123.165C124.509 0.336034 125.685 0.541367 126.693 0.952034C127.701 1.3627 128.485 1.98803 129.045 2.82804C129.605 3.64937 129.885 4.67603 129.885 5.90803C129.885 6.67337 129.689 7.3827 129.297 8.03603C128.924 8.6707 128.392 9.22137 127.701 9.68803C128.616 10.1547 129.316 10.78 129.801 11.564C130.305 12.3294 130.557 13.2534 130.557 14.336C130.557 15.5307 130.286 16.548 129.745 17.388C129.204 18.228 128.448 18.8627 127.477 19.292C126.506 19.7214 125.368 19.936 124.061 19.936H116.529ZM120.281 16.548H123.697C124.612 16.548 125.33 16.324 125.853 15.876C126.376 15.4094 126.637 14.7934 126.637 14.028C126.637 13.2254 126.348 12.6 125.769 12.152C125.19 11.6854 124.397 11.452 123.389 11.452H120.281V16.548ZM120.281 8.31603H123.249C124.089 8.31603 124.752 8.10137 125.237 7.67203C125.722 7.2427 125.965 6.63603 125.965 5.85203C125.965 5.06803 125.694 4.46137 125.153 4.03203C124.612 3.6027 123.874 3.38803 122.941 3.38803H120.281V8.31603ZM142.634 20.272C140.655 20.272 138.9 19.8427 137.37 18.984C135.858 18.1067 134.672 16.912 133.814 15.4C132.955 13.8694 132.526 12.124 132.526 10.164C132.526 8.1667 132.955 6.41203 133.814 4.90004C134.672 3.36937 135.848 2.1747 137.342 1.31603C138.854 0.457368 140.59 0.0280344 142.55 0.0280344C144.528 0.0280344 146.264 0.466701 147.758 1.34403C149.27 2.2027 150.455 3.39737 151.314 4.92803C152.172 6.44003 152.602 8.18537 152.602 10.164C152.602 12.124 152.172 13.8694 151.314 15.4C150.474 16.912 149.298 18.1067 147.786 18.984C146.292 19.8427 144.575 20.272 142.634 20.272ZM142.634 16.772C143.828 16.772 144.874 16.492 145.77 15.932C146.684 15.3534 147.394 14.5694 147.898 13.58C148.42 12.5907 148.682 11.452 148.682 10.164C148.682 8.85737 148.42 7.70937 147.898 6.72003C147.375 5.7307 146.656 4.95603 145.742 4.39603C144.827 3.81737 143.763 3.52803 142.55 3.52803C141.374 3.52803 140.319 3.81737 139.386 4.39603C138.471 4.95603 137.752 5.7307 137.23 6.72003C136.707 7.70937 136.446 8.85737 136.446 10.164C136.446 11.452 136.707 12.5907 137.23 13.58C137.752 14.5694 138.48 15.3534 139.414 15.932C140.347 16.492 141.42 16.772 142.634 16.772ZM164.673 20.272C162.694 20.272 160.939 19.8427 159.409 18.984C157.897 18.1067 156.711 16.912 155.853 15.4C154.994 13.8694 154.565 12.124 154.565 10.164C154.565 8.1667 154.994 6.41203 155.853 4.90004C156.711 3.36937 157.887 2.1747 159.381 1.31603C160.893 0.457368 162.629 0.0280344 164.589 0.0280344C166.567 0.0280344 168.303 0.466701 169.797 1.34403C171.309 2.2027 172.494 3.39737 173.353 4.92803C174.211 6.44003 174.641 8.18537 174.641 10.164C174.641 12.124 174.211 13.8694 173.353 15.4C172.513 16.912 171.337 18.1067 169.825 18.984C168.331 19.8427 166.614 20.272 164.673 20.272ZM164.673 16.772C165.867 16.772 166.913 16.492 167.809 15.932C168.723 15.3534 169.433 14.5694 169.937 13.58C170.459 12.5907 170.721 11.452 170.721 10.164C170.721 8.85737 170.459 7.70937 169.937 6.72003C169.414 5.7307 168.695 4.95603 167.781 4.39603C166.866 3.81737 165.802 3.52803 164.589 3.52803C163.413 3.52803 162.358 3.81737 161.425 4.39603C160.51 4.95603 159.791 5.7307 159.269 6.72003C158.746 7.70937 158.485 8.85737 158.485 10.164C158.485 11.452 158.746 12.5907 159.269 13.58C159.791 14.5694 160.519 15.3534 161.453 15.932C162.386 16.492 163.459 16.772 164.673 16.772ZM184.332 20.272C183.342 20.272 182.418 20.1507 181.56 19.908C180.701 19.6654 179.936 19.3294 179.264 18.9C178.592 18.452 178.032 17.9574 177.584 17.416C177.154 16.8747 176.874 16.3054 176.744 15.708L180.496 14.588C180.738 15.2227 181.168 15.7734 181.784 16.24C182.4 16.688 183.174 16.9214 184.108 16.94C185.097 16.9587 185.9 16.744 186.516 16.296C187.15 15.848 187.468 15.2694 187.468 14.56C187.468 13.944 187.216 13.4307 186.712 13.02C186.226 12.5907 185.554 12.264 184.696 12.04L182.148 11.368C181.196 11.1254 180.356 10.7614 179.628 10.276C178.9 9.77203 178.33 9.15603 177.92 8.42803C177.509 7.70003 177.304 6.8507 177.304 5.88003C177.304 4.03203 177.91 2.5947 179.124 1.56803C180.356 0.522701 182.092 3.48091e-05 184.332 3.48091e-05C185.582 3.48091e-05 186.674 0.186701 187.608 0.560034C188.56 0.914701 189.353 1.42803 189.988 2.10003C190.622 2.77203 191.108 3.56537 191.444 4.48003L187.72 5.62803C187.496 4.99337 187.085 4.45203 186.488 4.00403C185.89 3.55603 185.134 3.33203 184.22 3.33203C183.286 3.33203 182.549 3.5467 182.008 3.97603C181.485 4.40537 181.224 5.01203 181.224 5.79604C181.224 6.41203 181.429 6.89737 181.84 7.25203C182.269 7.6067 182.848 7.87737 183.576 8.06403L186.152 8.70803C187.832 9.1187 189.138 9.85603 190.072 10.92C191.005 11.984 191.472 13.1694 191.472 14.476C191.472 15.6334 191.192 16.6507 190.632 17.528C190.072 18.3867 189.26 19.0587 188.196 19.544C187.132 20.0294 185.844 20.272 184.332 20.272ZM198.903 19.936V3.83603H193.023V0.336034H208.591V3.83603H202.739V19.936H198.903Z" fill="#BF3707"/>
</svg>
