<svg width="246" height="24" viewBox="0 0 246 24" fill="none" xmlns="http://www.w3.org/2000/svg">
<path d="M9.20708 23.4961L8.39969e-05 0.396092H4.85108L11.6821 18.1501L18.4471 0.396092H23.2981L14.1241 23.4961H9.20708ZM26.0595 23.4961V0.396092H30.5805V23.4961H26.0595ZM35.5986 23.4961V0.396092H40.1196V19.3711H50.2836V23.4961H35.5986ZM53.3232 23.4961V0.396092H57.8442V19.3711H68.0082V23.4961H53.3232ZM68.8038 23.4961L77.9118 0.396092H82.7298L91.8378 23.4961H87.0528L85.0728 18.4141H75.5688L73.5888 23.4961H68.8038ZM77.0538 14.4211H83.5878L80.3208 6.03909L77.0538 14.4211ZM104.106 23.8921C101.752 23.8921 99.6618 23.3861 97.8358 22.3741C96.0318 21.3401 94.6128 19.9321 93.5788 18.1501C92.5448 16.3461 92.0278 14.2781 92.0278 11.9461C92.0278 9.61409 92.5448 7.55709 93.5788 5.77509C94.6128 3.97109 96.0318 2.56309 97.8358 1.55109C99.6618 0.517093 101.752 9.33409e-05 104.106 9.33409e-05C105.514 9.33409e-05 106.812 0.209093 108 0.627093C109.188 1.04509 110.233 1.62809 111.135 2.37609C112.059 3.10209 112.829 3.93809 113.445 4.88409L109.749 7.19409C109.375 6.60009 108.88 6.07209 108.264 5.61009C107.67 5.14809 107.01 4.78509 106.284 4.52109C105.558 4.25709 104.832 4.12509 104.106 4.12509C102.654 4.12509 101.367 4.46609 100.245 5.14809C99.1228 5.80809 98.2428 6.72109 97.6048 7.88709C96.9668 9.05309 96.6478 10.4061 96.6478 11.9461C96.6478 13.4641 96.9558 14.8171 97.5718 16.0051C98.2098 17.1931 99.1008 18.1281 100.245 18.8101C101.389 19.4701 102.709 19.8001 104.205 19.8001C105.327 19.8001 106.328 19.5911 107.208 19.1731C108.088 18.7331 108.792 18.1281 109.32 17.3581C109.848 16.5881 110.145 15.6861 110.211 14.6521H104.865V11.1211H114.567V13.9261C114.523 16.0381 114.05 17.8421 113.148 19.3381C112.246 20.8121 111.014 21.9451 109.452 22.7371C107.89 23.5071 106.108 23.8921 104.106 23.8921ZM117.905 23.4961V0.396092H132.524V4.52109H122.426V9.76809H131.138V13.7941H122.426V19.3711H132.656V23.4961H117.905ZM137.338 23.4961V0.396092H145.159C146.743 0.396092 148.129 0.638092 149.317 1.12209C150.505 1.60609 151.429 2.34309 152.089 3.33309C152.749 4.30109 153.079 5.51109 153.079 6.96309C153.079 7.86509 152.848 8.70109 152.386 9.47109C151.946 10.2191 151.319 10.8681 150.505 11.4181C151.583 11.9681 152.408 12.7051 152.98 13.6291C153.574 14.5311 153.871 15.6201 153.871 16.8961C153.871 18.3041 153.552 19.5031 152.914 20.4931C152.276 21.4831 151.385 22.2311 150.241 22.7371C149.097 23.2431 147.755 23.4961 146.215 23.4961H137.338ZM141.76 19.5031H145.786C146.864 19.5031 147.711 19.2391 148.327 18.7111C148.943 18.1611 149.251 17.4351 149.251 16.5331C149.251 15.5871 148.91 14.8501 148.228 14.3221C147.546 13.7721 146.611 13.4971 145.423 13.4971H141.76V19.5031ZM141.76 9.80109H145.258C146.248 9.80109 147.029 9.54809 147.601 9.04209C148.173 8.53609 148.459 7.82109 148.459 6.89709C148.459 5.97309 148.14 5.25809 147.502 4.75209C146.864 4.24609 145.995 3.99309 144.895 3.99309H141.76V9.80109ZM168.104 23.8921C165.772 23.8921 163.704 23.3861 161.9 22.3741C160.118 21.3401 158.721 19.9321 157.709 18.1501C156.697 16.3461 156.191 14.2891 156.191 11.9791C156.191 9.62509 156.697 7.55709 157.709 5.77509C158.721 3.97109 160.107 2.56309 161.867 1.55109C163.649 0.539093 165.695 0.0330929 168.005 0.0330929C170.337 0.0330929 172.383 0.550093 174.143 1.58409C175.925 2.59609 177.322 4.00409 178.334 5.80809C179.346 7.59009 179.852 9.64709 179.852 11.9791C179.852 14.2891 179.346 16.3461 178.334 18.1501C177.344 19.9321 175.958 21.3401 174.176 22.3741C172.416 23.3861 170.392 23.8921 168.104 23.8921ZM168.104 19.7671C169.512 19.7671 170.744 19.4371 171.8 18.7771C172.878 18.0951 173.714 17.1711 174.308 16.0051C174.924 14.8391 175.232 13.4971 175.232 11.9791C175.232 10.4391 174.924 9.08609 174.308 7.92009C173.692 6.75409 172.845 5.84109 171.767 5.18109C170.689 4.49909 169.435 4.15809 168.005 4.15809C166.619 4.15809 165.376 4.49909 164.276 5.18109C163.198 5.84109 162.351 6.75409 161.735 7.92009C161.119 9.08609 160.811 10.4391 160.811 11.9791C160.811 13.4971 161.119 14.8391 161.735 16.0051C162.351 17.1711 163.209 18.0951 164.309 18.7771C165.409 19.4371 166.674 19.7671 168.104 19.7671ZM194.078 23.8921C191.746 23.8921 189.678 23.3861 187.874 22.3741C186.092 21.3401 184.695 19.9321 183.683 18.1501C182.671 16.3461 182.165 14.2891 182.165 11.9791C182.165 9.62509 182.671 7.55709 183.683 5.77509C184.695 3.97109 186.081 2.56309 187.841 1.55109C189.623 0.539093 191.669 0.0330929 193.979 0.0330929C196.311 0.0330929 198.357 0.550093 200.117 1.58409C201.899 2.59609 203.296 4.00409 204.308 5.80809C205.32 7.59009 205.826 9.64709 205.826 11.9791C205.826 14.2891 205.32 16.3461 204.308 18.1501C203.318 19.9321 201.932 21.3401 200.15 22.3741C198.39 23.3861 196.366 23.8921 194.078 23.8921ZM194.078 19.7671C195.486 19.7671 196.718 19.4371 197.774 18.7771C198.852 18.0951 199.688 17.1711 200.282 16.0051C200.898 14.8391 201.206 13.4971 201.206 11.9791C201.206 10.4391 200.898 9.08609 200.282 7.92009C199.666 6.75409 198.819 5.84109 197.741 5.18109C196.663 4.49909 195.409 4.15809 193.979 4.15809C192.593 4.15809 191.35 4.49909 190.25 5.18109C189.172 5.84109 188.325 6.75409 187.709 7.92009C187.093 9.08609 186.785 10.4391 186.785 11.9791C186.785 13.4971 187.093 14.8391 187.709 16.0051C188.325 17.1711 189.183 18.0951 190.283 18.7771C191.383 19.4371 192.648 19.7671 194.078 19.7671ZM217.248 23.8921C216.082 23.8921 214.993 23.7491 213.981 23.4631C212.969 23.1771 212.067 22.7811 211.275 22.2751C210.483 21.7471 209.823 21.1641 209.295 20.5261C208.789 19.8881 208.459 19.2171 208.305 18.5131L212.727 17.1931C213.013 17.9411 213.519 18.5901 214.245 19.1401C214.971 19.6681 215.884 19.9431 216.984 19.9651C218.15 19.9871 219.096 19.7341 219.822 19.2061C220.57 18.6781 220.944 17.9961 220.944 17.1601C220.944 16.4341 220.647 15.8291 220.053 15.3451C219.481 14.8391 218.689 14.4541 217.677 14.1901L214.674 13.3981C213.552 13.1121 212.562 12.6831 211.704 12.1111C210.846 11.5171 210.175 10.7911 209.691 9.93309C209.207 9.07509 208.965 8.07409 208.965 6.93009C208.965 4.75209 209.68 3.05809 211.11 1.84809C212.562 0.616093 214.608 9.33409e-05 217.248 9.33409e-05C218.722 9.33409e-05 220.009 0.220093 221.109 0.660093C222.231 1.07809 223.166 1.68309 223.914 2.47509C224.662 3.26709 225.234 4.20209 225.63 5.28009L221.241 6.63309C220.977 5.88509 220.493 5.24709 219.789 4.71909C219.085 4.19109 218.194 3.92709 217.116 3.92709C216.016 3.92709 215.147 4.18009 214.509 4.68609C213.893 5.19209 213.585 5.90709 213.585 6.83109C213.585 7.55709 213.827 8.12909 214.311 8.54709C214.817 8.96509 215.499 9.28409 216.357 9.50409L219.393 10.2631C221.373 10.7471 222.913 11.6161 224.013 12.8701C225.113 14.1241 225.663 15.5211 225.663 17.0611C225.663 18.4251 225.333 19.6241 224.673 20.6581C224.013 21.6701 223.056 22.4621 221.802 23.0341C220.548 23.6061 219.03 23.8921 217.248 23.8921ZM234.422 23.4961V4.52109H227.492V0.396092H245.84V4.52109H238.943V23.4961H234.422Z" fill="white"/>
</svg>
